<?xml version="1.0" standalone="no"?>
<!DOCTYPE svg PUBLIC "-//W3C//DTD SVG 20010904//EN"
 "http://www.w3.org/TR/2001/REC-SVG-20010904/DTD/svg10.dtd">
<svg version="1.0" xmlns="http://www.w3.org/2000/svg"
 width="191.000000pt" height="191.000000pt" viewBox="0 0 191.000000 191.000000"
 preserveAspectRatio="xMidYMid meet">
<metadata>
Created by potrace 1.10, written by Peter Selinger 2001-2011
</metadata>
<g transform="translate(0.000000,191.000000) scale(0.100000,-0.100000)"
fill="#000000" stroke="none">
<path d="M0 1732 l0 -179 113 -6 c183 -10 364 -58 547 -144 499 -234 847 -742
877 -1280 l6 -113 180 0 180 0 -6 113 c-19 326 -127 650 -309 928 -272 413
-690 703 -1173 813 -105 24 -274 46 -349 46 l-66 0 0 -178z"/>
<path d="M0 1020 l0 -180 43 0 c92 -1 252 -46 354 -101 239 -129 407 -383 429
-652 l7 -77 178 0 179 0 0 33 c0 48 -27 220 -45 285 -104 376 -406 688 -784
812 -80 26 -270 60 -336 60 l-25 0 0 -180z"/>
<path d="M155 469 c-46 -13 -103 -66 -130 -120 -100 -196 118 -414 314 -314
87 44 131 115 131 212 -1 136 -98 234 -230 232 -30 0 -68 -5 -85 -10z"/>
</g>
</svg>
